<mxfile host="Electron" modified="2024-01-15T22:02:46.673Z" agent="Mozilla/5.0 (Windows NT 10.0; Win64; x64) AppleWebKit/537.36 (KHTML, like Gecko) draw.io/22.1.16 Chrome/120.0.6099.109 Electron/28.1.0 Safari/537.36" etag="5nIIMq00bdyi8EZASKMB" version="22.1.16" type="device">
  <diagram name="Page-1" id="dC8sB8LTiM5v0IOeK6bp">
    <mxGraphModel dx="4160" dy="1887" grid="0" gridSize="10" guides="1" tooltips="1" connect="1" arrows="1" fold="1" page="0" pageScale="1" pageWidth="850" pageHeight="1100" math="0" shadow="0">
      <root>
        <mxCell id="0" />
        <mxCell id="1" parent="0" />
        <mxCell id="yN8mX1wbEfo4K8Nz7WSZ-1" value="&lt;i&gt;&amp;lt;&amp;lt; abstract &amp;gt;&amp;gt;&lt;br&gt;CompressionABC&lt;/i&gt;" style="swimlane;fontStyle=1;align=center;verticalAlign=top;childLayout=stackLayout;horizontal=1;startSize=40;horizontalStack=0;resizeParent=1;resizeParentMax=0;resizeLast=0;collapsible=1;marginBottom=0;whiteSpace=wrap;html=1;strokeColor=#464F55;fontColor=#FFFFFF;fillColor=#2C6879;rounded=1;labelBackgroundColor=none;" parent="1" vertex="1">
          <mxGeometry x="-1382" y="142" width="220" height="106" as="geometry">
            <mxRectangle x="299" y="276" width="120" height="40" as="alternateBounds" />
          </mxGeometry>
        </mxCell>
        <mxCell id="yN8mX1wbEfo4K8Nz7WSZ-2" value="&amp;nbsp;" style="text;strokeColor=none;fillColor=none;align=left;verticalAlign=top;spacingLeft=4;spacingRight=4;overflow=hidden;rotatable=0;points=[[0,0.5],[1,0.5]];portConstraint=eastwest;whiteSpace=wrap;html=1;fontColor=#464F55;rounded=1;labelBackgroundColor=none;" parent="yN8mX1wbEfo4K8Nz7WSZ-1" vertex="1">
          <mxGeometry y="40" width="220" height="20" as="geometry" />
        </mxCell>
        <mxCell id="yN8mX1wbEfo4K8Nz7WSZ-3" value="" style="line;strokeWidth=1;fillColor=none;align=left;verticalAlign=middle;spacingTop=-1;spacingLeft=3;spacingRight=3;rotatable=0;labelPosition=right;points=[];portConstraint=eastwest;strokeColor=#464F55;fontColor=#1A1A1A;rounded=1;labelBackgroundColor=none;" parent="yN8mX1wbEfo4K8Nz7WSZ-1" vertex="1">
          <mxGeometry y="60" width="220" height="8" as="geometry" />
        </mxCell>
        <mxCell id="yN8mX1wbEfo4K8Nz7WSZ-4" value="+ encode()&lt;br&gt;+ decode()" style="text;strokeColor=none;fillColor=none;align=left;verticalAlign=top;spacingLeft=4;spacingRight=4;overflow=hidden;rotatable=0;points=[[0,0.5],[1,0.5]];portConstraint=eastwest;whiteSpace=wrap;html=1;fontColor=#464F55;rounded=1;labelBackgroundColor=none;" parent="yN8mX1wbEfo4K8Nz7WSZ-1" vertex="1">
          <mxGeometry y="68" width="220" height="38" as="geometry" />
        </mxCell>
        <mxCell id="yN8mX1wbEfo4K8Nz7WSZ-5" value="" style="endArrow=none;dashed=1;html=1;rounded=0;opacity=40;" parent="1" edge="1">
          <mxGeometry width="50" height="50" relative="1" as="geometry">
            <mxPoint x="-1528" y="1016.62" as="sourcePoint" />
            <mxPoint x="-1528" y="-13.379999999999999" as="targetPoint" />
          </mxGeometry>
        </mxCell>
        <mxCell id="yN8mX1wbEfo4K8Nz7WSZ-6" value="" style="endArrow=none;dashed=1;html=1;rounded=0;opacity=40;" parent="1" edge="1">
          <mxGeometry width="50" height="50" relative="1" as="geometry">
            <mxPoint x="-812" y="969.62" as="sourcePoint" />
            <mxPoint x="-812" y="-13.379999999999999" as="targetPoint" />
          </mxGeometry>
        </mxCell>
        <mxCell id="yN8mX1wbEfo4K8Nz7WSZ-11" value="&lt;br&gt;LZW&lt;i style=&quot;border-color: var(--border-color);&quot;&gt;Compression&lt;/i&gt;" style="swimlane;fontStyle=1;align=center;verticalAlign=top;childLayout=stackLayout;horizontal=1;startSize=40;horizontalStack=0;resizeParent=1;resizeParentMax=0;resizeLast=0;collapsible=1;marginBottom=0;whiteSpace=wrap;html=1;strokeColor=#464F55;fontColor=#FFFFFF;fillColor=#2C6879;rounded=1;labelBackgroundColor=none;" parent="1" vertex="1">
          <mxGeometry x="-1382" y="282" width="220" height="262" as="geometry">
            <mxRectangle x="299" y="276" width="120" height="40" as="alternateBounds" />
          </mxGeometry>
        </mxCell>
        <mxCell id="yN8mX1wbEfo4K8Nz7WSZ-30" style="edgeStyle=orthogonalEdgeStyle;rounded=0;orthogonalLoop=1;jettySize=auto;html=1;exitX=0;exitY=0.5;exitDx=0;exitDy=0;endArrow=none;endFill=0;dashed=1;strokeColor=#464F55;" parent="yN8mX1wbEfo4K8Nz7WSZ-11" source="yN8mX1wbEfo4K8Nz7WSZ-12" edge="1">
          <mxGeometry relative="1" as="geometry">
            <mxPoint x="-88" y="81" as="targetPoint" />
          </mxGeometry>
        </mxCell>
        <mxCell id="YMNnF1_kSBJPY39AivQV-12" style="edgeStyle=orthogonalEdgeStyle;rounded=0;orthogonalLoop=1;jettySize=auto;html=1;exitX=1;exitY=0.577;exitDx=0;exitDy=0;endArrow=none;endFill=0;endSize=10;startSize=10;startArrow=open;startFill=0;exitPerimeter=0;strokeColor=#464F55;" parent="yN8mX1wbEfo4K8Nz7WSZ-11" source="yN8mX1wbEfo4K8Nz7WSZ-12" edge="1">
          <mxGeometry relative="1" as="geometry">
            <mxPoint x="389" y="195" as="targetPoint" />
            <Array as="points">
              <mxPoint x="304" y="87" />
              <mxPoint x="389" y="88" />
            </Array>
          </mxGeometry>
        </mxCell>
        <mxCell id="yN8mX1wbEfo4K8Nz7WSZ-12" value="+&amp;nbsp;INITIAL_CODEBOOK_SIZE: int&lt;br&gt;+&amp;nbsp;MAXIMUM_CODEBOOK_SIZE: int&lt;br&gt;+&amp;nbsp;codebook_size: None/int&lt;br&gt;+&amp;nbsp;codebook: dict&lt;br&gt;+ bit_size: int" style="text;strokeColor=none;fillColor=none;align=left;verticalAlign=top;spacingLeft=4;spacingRight=4;overflow=hidden;rotatable=0;points=[[0,0.5],[1,0.5]];portConstraint=eastwest;whiteSpace=wrap;html=1;fontColor=#464F55;rounded=1;labelBackgroundColor=none;" parent="yN8mX1wbEfo4K8Nz7WSZ-11" vertex="1">
          <mxGeometry y="40" width="220" height="82" as="geometry" />
        </mxCell>
        <mxCell id="yN8mX1wbEfo4K8Nz7WSZ-13" value="" style="line;strokeWidth=1;fillColor=none;align=left;verticalAlign=middle;spacingTop=-1;spacingLeft=3;spacingRight=3;rotatable=0;labelPosition=right;points=[];portConstraint=eastwest;strokeColor=#464F55;fontColor=#1A1A1A;rounded=1;labelBackgroundColor=none;" parent="yN8mX1wbEfo4K8Nz7WSZ-11" vertex="1">
          <mxGeometry y="122" width="220" height="8" as="geometry" />
        </mxCell>
        <mxCell id="yN8mX1wbEfo4K8Nz7WSZ-14" value="+ create_codebook()&lt;br&gt;+ create_code()&lt;br&gt;+ calculate_max_bit_size()&lt;br&gt;+ compress_code()&lt;br&gt;&lt;br&gt;+ decomprss_code()&lt;br&gt;+ create_reversed_codebook()&lt;br&gt;+ recover_data()" style="text;strokeColor=none;fillColor=none;align=left;verticalAlign=top;spacingLeft=4;spacingRight=4;overflow=hidden;rotatable=0;points=[[0,0.5],[1,0.5]];portConstraint=eastwest;whiteSpace=wrap;html=1;fontColor=#464F55;rounded=1;labelBackgroundColor=none;" parent="yN8mX1wbEfo4K8Nz7WSZ-11" vertex="1">
          <mxGeometry y="130" width="220" height="132" as="geometry" />
        </mxCell>
        <mxCell id="yN8mX1wbEfo4K8Nz7WSZ-29" style="edgeStyle=orthogonalEdgeStyle;rounded=0;orthogonalLoop=1;jettySize=auto;html=1;entryX=0;entryY=0.5;entryDx=0;entryDy=0;exitX=0;exitY=0.5;exitDx=0;exitDy=0;endArrow=block;endFill=0;dashed=1;endSize=10;startSize=10;strokeColor=#464F55;" parent="1" source="yN8mX1wbEfo4K8Nz7WSZ-16" target="yN8mX1wbEfo4K8Nz7WSZ-2" edge="1">
          <mxGeometry relative="1" as="geometry">
            <Array as="points">
              <mxPoint x="-1473" y="643" />
              <mxPoint x="-1473" y="192" />
            </Array>
          </mxGeometry>
        </mxCell>
        <mxCell id="yN8mX1wbEfo4K8Nz7WSZ-15" value="&lt;br&gt;Huffman&lt;i style=&quot;border-color: var(--border-color);&quot;&gt;Compression&lt;/i&gt;" style="swimlane;fontStyle=1;align=center;verticalAlign=top;childLayout=stackLayout;horizontal=1;startSize=40;horizontalStack=0;resizeParent=1;resizeParentMax=0;resizeLast=0;collapsible=1;marginBottom=0;whiteSpace=wrap;html=1;strokeColor=#464F55;fontColor=#FFFFFF;fillColor=#2C6879;rounded=1;labelBackgroundColor=none;" parent="1" vertex="1">
          <mxGeometry x="-1385" y="593" width="220" height="231" as="geometry">
            <mxRectangle x="299" y="276" width="120" height="40" as="alternateBounds" />
          </mxGeometry>
        </mxCell>
        <mxCell id="yN8mX1wbEfo4K8Nz7WSZ-16" value="+ codebook: dict" style="text;strokeColor=none;fillColor=none;align=left;verticalAlign=top;spacingLeft=4;spacingRight=4;overflow=hidden;rotatable=0;points=[[0,0.5],[1,0.5]];portConstraint=eastwest;whiteSpace=wrap;html=1;fontColor=#464F55;rounded=1;labelBackgroundColor=none;" parent="yN8mX1wbEfo4K8Nz7WSZ-15" vertex="1">
          <mxGeometry y="40" width="220" height="20" as="geometry" />
        </mxCell>
        <mxCell id="yN8mX1wbEfo4K8Nz7WSZ-17" value="" style="line;strokeWidth=1;fillColor=none;align=left;verticalAlign=middle;spacingTop=-1;spacingLeft=3;spacingRight=3;rotatable=0;labelPosition=right;points=[];portConstraint=eastwest;strokeColor=#464F55;fontColor=#1A1A1A;rounded=1;labelBackgroundColor=none;" parent="yN8mX1wbEfo4K8Nz7WSZ-15" vertex="1">
          <mxGeometry y="60" width="220" height="8" as="geometry" />
        </mxCell>
        <mxCell id="yN8mX1wbEfo4K8Nz7WSZ-18" value="+&amp;nbsp;set_codebook()&lt;br&gt;&lt;br&gt;+&amp;nbsp;convert_to_code()&lt;br&gt;+&amp;nbsp;convert_to_original()&lt;br&gt;&lt;br&gt;+&amp;nbsp;pad_converted_data()&lt;br&gt;+&amp;nbsp;remove_padding()&lt;br&gt;&lt;br&gt;+ encode_to_bytes()&lt;br&gt;+&amp;nbsp;decode_to_string()" style="text;strokeColor=none;fillColor=none;align=left;verticalAlign=top;spacingLeft=4;spacingRight=4;overflow=hidden;rotatable=0;points=[[0,0.5],[1,0.5]];portConstraint=eastwest;whiteSpace=wrap;html=1;fontColor=#464F55;rounded=1;labelBackgroundColor=none;" parent="yN8mX1wbEfo4K8Nz7WSZ-15" vertex="1">
          <mxGeometry y="68" width="220" height="163" as="geometry" />
        </mxCell>
        <mxCell id="yN8mX1wbEfo4K8Nz7WSZ-33" value="&lt;br&gt;FileHandler" style="swimlane;fontStyle=1;align=center;verticalAlign=top;childLayout=stackLayout;horizontal=1;startSize=40;horizontalStack=0;resizeParent=1;resizeParentMax=0;resizeLast=0;collapsible=1;marginBottom=0;whiteSpace=wrap;html=1;strokeColor=#464F55;fontColor=#FFFFFF;fillColor=#2C6879;rounded=1;labelBackgroundColor=none;" parent="1" vertex="1">
          <mxGeometry x="-1796" y="217" width="220" height="100" as="geometry">
            <mxRectangle x="299" y="276" width="120" height="40" as="alternateBounds" />
          </mxGeometry>
        </mxCell>
        <mxCell id="yN8mX1wbEfo4K8Nz7WSZ-34" value="&amp;nbsp;" style="text;strokeColor=none;fillColor=none;align=left;verticalAlign=top;spacingLeft=4;spacingRight=4;overflow=hidden;rotatable=0;points=[[0,0.5],[1,0.5]];portConstraint=eastwest;whiteSpace=wrap;html=1;fontColor=#464F55;rounded=1;labelBackgroundColor=none;" parent="yN8mX1wbEfo4K8Nz7WSZ-33" vertex="1">
          <mxGeometry y="40" width="220" height="20" as="geometry" />
        </mxCell>
        <mxCell id="yN8mX1wbEfo4K8Nz7WSZ-35" value="" style="line;strokeWidth=1;fillColor=none;align=left;verticalAlign=middle;spacingTop=-1;spacingLeft=3;spacingRight=3;rotatable=0;labelPosition=right;points=[];portConstraint=eastwest;strokeColor=#464F55;fontColor=#1A1A1A;rounded=1;labelBackgroundColor=none;" parent="yN8mX1wbEfo4K8Nz7WSZ-33" vertex="1">
          <mxGeometry y="60" width="220" height="8" as="geometry" />
        </mxCell>
        <mxCell id="yN8mX1wbEfo4K8Nz7WSZ-36" value="&amp;nbsp;" style="text;strokeColor=none;fillColor=none;align=left;verticalAlign=top;spacingLeft=4;spacingRight=4;overflow=hidden;rotatable=0;points=[[0,0.5],[1,0.5]];portConstraint=eastwest;whiteSpace=wrap;html=1;fontColor=#464F55;rounded=1;labelBackgroundColor=none;" parent="yN8mX1wbEfo4K8Nz7WSZ-33" vertex="1">
          <mxGeometry y="68" width="220" height="32" as="geometry" />
        </mxCell>
        <mxCell id="aZK4S6DxadD1nDz1rjE1-4" style="edgeStyle=orthogonalEdgeStyle;rounded=0;orthogonalLoop=1;jettySize=auto;html=1;entryX=0.5;entryY=1;entryDx=0;entryDy=0;endArrow=none;endFill=0;strokeColor=#464F55;" edge="1" parent="1" source="yN8mX1wbEfo4K8Nz7WSZ-63" target="aZK4S6DxadD1nDz1rjE1-1">
          <mxGeometry relative="1" as="geometry" />
        </mxCell>
        <mxCell id="yN8mX1wbEfo4K8Nz7WSZ-63" value="&lt;font color=&quot;#464f55&quot;&gt;varc.py&lt;/font&gt;" style="rounded=0;whiteSpace=wrap;html=1;strokeColor=#464F55;" parent="1" vertex="1">
          <mxGeometry x="-655" y="670" width="120" height="60" as="geometry" />
        </mxCell>
        <mxCell id="yN8mX1wbEfo4K8Nz7WSZ-74" value="&lt;span style=&quot;font-size: 24px;&quot;&gt;DATA LAYER&lt;/span&gt;" style="text;html=1;strokeColor=none;fillColor=none;align=center;verticalAlign=middle;whiteSpace=wrap;rounded=0;" parent="1" vertex="1">
          <mxGeometry x="-1756" y="-78.75" width="210" height="40" as="geometry" />
        </mxCell>
        <mxCell id="yN8mX1wbEfo4K8Nz7WSZ-75" value="" style="shape=curlyBracket;whiteSpace=wrap;html=1;rounded=1;flipH=1;labelPosition=right;verticalLabelPosition=middle;align=left;verticalAlign=middle;rotation=-90;" parent="1" vertex="1">
          <mxGeometry x="-1664.75" y="-155" width="20" height="252.5" as="geometry" />
        </mxCell>
        <mxCell id="yN8mX1wbEfo4K8Nz7WSZ-76" value="&lt;span style=&quot;font-size: 24px;&quot;&gt;CORE&lt;/span&gt;" style="text;html=1;strokeColor=none;fillColor=none;align=center;verticalAlign=middle;whiteSpace=wrap;rounded=0;" parent="1" vertex="1">
          <mxGeometry x="-1272.23" y="-87" width="210" height="40" as="geometry" />
        </mxCell>
        <mxCell id="yN8mX1wbEfo4K8Nz7WSZ-77" value="" style="shape=curlyBracket;whiteSpace=wrap;html=1;rounded=1;flipH=1;labelPosition=right;verticalLabelPosition=middle;align=left;verticalAlign=middle;rotation=-90;" parent="1" vertex="1">
          <mxGeometry x="-1177.23" y="-384.51" width="20" height="711.55" as="geometry" />
        </mxCell>
        <mxCell id="yN8mX1wbEfo4K8Nz7WSZ-78" value="&lt;span style=&quot;font-size: 24px;&quot;&gt;USER COMMUNICATION&lt;br&gt;(FRONTEND)&lt;br&gt;&lt;/span&gt;" style="text;html=1;strokeColor=none;fillColor=none;align=center;verticalAlign=middle;whiteSpace=wrap;rounded=0;" parent="1" vertex="1">
          <mxGeometry x="-746.34" y="-94" width="314.31" height="40" as="geometry" />
        </mxCell>
        <mxCell id="yN8mX1wbEfo4K8Nz7WSZ-79" value="" style="shape=curlyBracket;whiteSpace=wrap;html=1;rounded=1;flipH=1;labelPosition=right;verticalLabelPosition=middle;align=left;verticalAlign=middle;rotation=-90;" parent="1" vertex="1">
          <mxGeometry x="-599.19" y="-244.7" width="20" height="431.88" as="geometry" />
        </mxCell>
        <mxCell id="yN8mX1wbEfo4K8Nz7WSZ-80" value="&lt;span style=&quot;font-size: 24px;&quot;&gt;BACKEND&lt;/span&gt;" style="text;html=1;strokeColor=none;fillColor=none;align=center;verticalAlign=middle;whiteSpace=wrap;rounded=0;" parent="1" vertex="1">
          <mxGeometry x="-1396" y="-172" width="210" height="40" as="geometry" />
        </mxCell>
        <mxCell id="yN8mX1wbEfo4K8Nz7WSZ-81" value="" style="shape=curlyBracket;whiteSpace=wrap;html=1;rounded=1;flipH=1;labelPosition=right;verticalLabelPosition=middle;align=left;verticalAlign=middle;rotation=-90;" parent="1" vertex="1">
          <mxGeometry x="-1310.38" y="-598.63" width="20" height="978" as="geometry" />
        </mxCell>
        <mxCell id="YMNnF1_kSBJPY39AivQV-1" value="&lt;br&gt;Application" style="swimlane;fontStyle=1;align=center;verticalAlign=top;childLayout=stackLayout;horizontal=1;startSize=40;horizontalStack=0;resizeParent=1;resizeParentMax=0;resizeLast=0;collapsible=1;marginBottom=0;whiteSpace=wrap;html=1;strokeColor=#464F55;fontColor=#FFFFFF;fillColor=#2C6879;rounded=1;labelBackgroundColor=none;" parent="1" vertex="1">
          <mxGeometry x="-740" y="322" width="280" height="221" as="geometry">
            <mxRectangle x="299" y="276" width="120" height="40" as="alternateBounds" />
          </mxGeometry>
        </mxCell>
        <mxCell id="YMNnF1_kSBJPY39AivQV-2" value="+&amp;nbsp;file_handler: FileHandler&lt;br&gt;+ lzw_compression: LZWCompression&lt;br&gt;+ huffman_compression: HuffmanCompression&lt;br&gt;+ rich_output: RichOutput" style="text;strokeColor=none;fillColor=none;align=left;verticalAlign=top;spacingLeft=4;spacingRight=4;overflow=hidden;rotatable=0;points=[[0,0.5],[1,0.5]];portConstraint=eastwest;whiteSpace=wrap;html=1;fontColor=#464F55;rounded=1;labelBackgroundColor=none;" parent="YMNnF1_kSBJPY39AivQV-1" vertex="1">
          <mxGeometry y="40" width="280" height="72" as="geometry" />
        </mxCell>
        <mxCell id="YMNnF1_kSBJPY39AivQV-3" value="" style="line;strokeWidth=1;fillColor=none;align=left;verticalAlign=middle;spacingTop=-1;spacingLeft=3;spacingRight=3;rotatable=0;labelPosition=right;points=[];portConstraint=eastwest;strokeColor=#464F55;fontColor=#1A1A1A;rounded=1;labelBackgroundColor=none;" parent="YMNnF1_kSBJPY39AivQV-1" vertex="1">
          <mxGeometry y="112" width="280" height="8" as="geometry" />
        </mxCell>
        <mxCell id="YMNnF1_kSBJPY39AivQV-4" value="+ encode()&lt;br&gt;- execute_encoding_algorithm()&lt;br&gt;+ decode()&lt;br&gt;-&amp;nbsp;execute_decoding_algorithm()&lt;br&gt;+ print_info()" style="text;strokeColor=none;fillColor=none;align=left;verticalAlign=top;spacingLeft=4;spacingRight=4;overflow=hidden;rotatable=0;points=[[0,0.5],[1,0.5]];portConstraint=eastwest;whiteSpace=wrap;html=1;fontColor=#464F55;rounded=1;labelBackgroundColor=none;" parent="YMNnF1_kSBJPY39AivQV-1" vertex="1">
          <mxGeometry y="120" width="280" height="101" as="geometry" />
        </mxCell>
        <mxCell id="YMNnF1_kSBJPY39AivQV-15" style="edgeStyle=orthogonalEdgeStyle;rounded=0;orthogonalLoop=1;jettySize=auto;html=1;endArrow=diamond;endFill=0;endSize=10;startSize=10;startArrow=open;startFill=0;exitX=0.985;exitY=0.04;exitDx=0;exitDy=0;exitPerimeter=0;strokeColor=#464F55;" parent="1" source="yN8mX1wbEfo4K8Nz7WSZ-36" edge="1">
          <mxGeometry relative="1" as="geometry">
            <Array as="points">
              <mxPoint x="-1540" y="286" />
              <mxPoint x="-1540" y="95" />
              <mxPoint x="-948" y="95" />
              <mxPoint x="-948" y="438" />
            </Array>
            <mxPoint x="-740" y="438" as="targetPoint" />
          </mxGeometry>
        </mxCell>
        <mxCell id="YMNnF1_kSBJPY39AivQV-16" value="Multi-Layered&#xa;Architecture" style="text;whiteSpace=wrap;fontSize=30;" parent="1" vertex="1">
          <mxGeometry x="-363" y="-104.12" width="253" height="90.75" as="geometry" />
        </mxCell>
        <mxCell id="YMNnF1_kSBJPY39AivQV-20" value="&lt;i style=&quot;border-color: var(--border-color);&quot;&gt;&amp;lt;&amp;lt; abstract &amp;gt;&amp;gt;&lt;/i&gt;&lt;br&gt;&lt;i&gt;FileHandlerABC&lt;/i&gt;" style="swimlane;fontStyle=1;align=center;verticalAlign=top;childLayout=stackLayout;horizontal=1;startSize=40;horizontalStack=0;resizeParent=1;resizeParentMax=0;resizeLast=0;collapsible=1;marginBottom=0;whiteSpace=wrap;html=1;strokeColor=#464F55;fontColor=#FFFFFF;fillColor=#2C6879;rounded=1;labelBackgroundColor=none;" parent="1" vertex="1">
          <mxGeometry x="-1796" y="-1.25" width="220" height="197" as="geometry">
            <mxRectangle x="299" y="276" width="120" height="40" as="alternateBounds" />
          </mxGeometry>
        </mxCell>
        <mxCell id="YMNnF1_kSBJPY39AivQV-21" value="&amp;nbsp;" style="text;strokeColor=none;fillColor=none;align=left;verticalAlign=top;spacingLeft=4;spacingRight=4;overflow=hidden;rotatable=0;points=[[0,0.5],[1,0.5]];portConstraint=eastwest;whiteSpace=wrap;html=1;fontColor=#464F55;rounded=1;labelBackgroundColor=none;" parent="YMNnF1_kSBJPY39AivQV-20" vertex="1">
          <mxGeometry y="40" width="220" height="20" as="geometry" />
        </mxCell>
        <mxCell id="YMNnF1_kSBJPY39AivQV-22" value="" style="line;strokeWidth=1;fillColor=none;align=left;verticalAlign=middle;spacingTop=-1;spacingLeft=3;spacingRight=3;rotatable=0;labelPosition=right;points=[];portConstraint=eastwest;strokeColor=#464F55;fontColor=#1A1A1A;rounded=1;labelBackgroundColor=none;" parent="YMNnF1_kSBJPY39AivQV-20" vertex="1">
          <mxGeometry y="60" width="220" height="8" as="geometry" />
        </mxCell>
        <mxCell id="YMNnF1_kSBJPY39AivQV-23" value="+&amp;nbsp;get_path_info()&lt;br&gt;+ get_file_bytes()&lt;br&gt;+ write_in_file()&lt;br&gt;+ read_from_file()&lt;br&gt;+ recreate_file()&lt;br&gt;+ rebuild_file_path()" style="text;strokeColor=none;fillColor=none;align=left;verticalAlign=top;spacingLeft=4;spacingRight=4;overflow=hidden;rotatable=0;points=[[0,0.5],[1,0.5]];portConstraint=eastwest;whiteSpace=wrap;html=1;fontColor=#464F55;rounded=1;labelBackgroundColor=none;" parent="YMNnF1_kSBJPY39AivQV-20" vertex="1">
          <mxGeometry y="68" width="220" height="129" as="geometry" />
        </mxCell>
        <mxCell id="YMNnF1_kSBJPY39AivQV-24" style="edgeStyle=orthogonalEdgeStyle;rounded=0;orthogonalLoop=1;jettySize=auto;html=1;exitX=0;exitY=0.5;exitDx=0;exitDy=0;entryX=0;entryY=0.5;entryDx=0;entryDy=0;endArrow=block;endFill=0;dashed=1;endSize=10;startSize=10;strokeColor=#464F55;" parent="1" source="yN8mX1wbEfo4K8Nz7WSZ-34" target="YMNnF1_kSBJPY39AivQV-21" edge="1">
          <mxGeometry relative="1" as="geometry" />
        </mxCell>
        <mxCell id="YMNnF1_kSBJPY39AivQV-13" style="edgeStyle=orthogonalEdgeStyle;rounded=0;orthogonalLoop=1;jettySize=auto;html=1;endArrow=diamond;endFill=0;endSize=10;startSize=10;startArrow=open;startFill=0;entryX=0;entryY=0.346;entryDx=0;entryDy=0;entryPerimeter=0;exitX=1.008;exitY=0.344;exitDx=0;exitDy=0;exitPerimeter=0;strokeColor=#464F55;" parent="1" source="yN8mX1wbEfo4K8Nz7WSZ-18" target="YMNnF1_kSBJPY39AivQV-4" edge="1">
          <mxGeometry relative="1" as="geometry">
            <mxPoint x="-1010.4285714285711" y="428.42857142857156" as="targetPoint" />
            <Array as="points">
              <mxPoint x="-993" y="717" />
              <mxPoint x="-993" y="477" />
            </Array>
            <mxPoint x="-1165" y="610" as="sourcePoint" />
          </mxGeometry>
        </mxCell>
        <mxCell id="l79x1VMeLkTDuMIe-8M3-12" style="edgeStyle=orthogonalEdgeStyle;rounded=0;orthogonalLoop=1;jettySize=auto;html=1;entryX=0.496;entryY=1;entryDx=0;entryDy=0;entryPerimeter=0;endArrow=diamond;endFill=0;startArrow=open;startFill=0;endSize=10;startSize=10;strokeColor=#464F55;" parent="1" source="l79x1VMeLkTDuMIe-8M3-8" target="yN8mX1wbEfo4K8Nz7WSZ-18" edge="1">
          <mxGeometry relative="1" as="geometry" />
        </mxCell>
        <mxCell id="l79x1VMeLkTDuMIe-8M3-8" value="&lt;br&gt;BinaryTree" style="swimlane;fontStyle=1;align=center;verticalAlign=top;childLayout=stackLayout;horizontal=1;startSize=40;horizontalStack=0;resizeParent=1;resizeParentMax=0;resizeLast=0;collapsible=1;marginBottom=0;whiteSpace=wrap;html=1;strokeColor=#464F55;fontColor=#FFFFFF;fillColor=#2C6879;rounded=1;labelBackgroundColor=none;" parent="1" vertex="1">
          <mxGeometry x="-1385" y="866" width="220" height="207" as="geometry">
            <mxRectangle x="299" y="276" width="120" height="40" as="alternateBounds" />
          </mxGeometry>
        </mxCell>
        <mxCell id="l79x1VMeLkTDuMIe-8M3-9" value="+ heap: list&lt;br&gt;+ codebook: dict" style="text;strokeColor=none;fillColor=none;align=left;verticalAlign=top;spacingLeft=4;spacingRight=4;overflow=hidden;rotatable=0;points=[[0,0.5],[1,0.5]];portConstraint=eastwest;whiteSpace=wrap;html=1;fontColor=#464F55;rounded=1;labelBackgroundColor=none;" parent="l79x1VMeLkTDuMIe-8M3-8" vertex="1">
          <mxGeometry y="40" width="220" height="37" as="geometry" />
        </mxCell>
        <mxCell id="l79x1VMeLkTDuMIe-8M3-10" value="" style="line;strokeWidth=1;fillColor=none;align=left;verticalAlign=middle;spacingTop=-1;spacingLeft=3;spacingRight=3;rotatable=0;labelPosition=right;points=[];portConstraint=eastwest;strokeColor=#464F55;fontColor=#1A1A1A;rounded=1;labelBackgroundColor=none;" parent="l79x1VMeLkTDuMIe-8M3-8" vertex="1">
          <mxGeometry y="77" width="220" height="8" as="geometry" />
        </mxCell>
        <mxCell id="l79x1VMeLkTDuMIe-8M3-11" value="+ create_codebook()&lt;br&gt;+&amp;nbsp;create_frequency_dict()&lt;br&gt;+&amp;nbsp;create_heap()&lt;br&gt;+&amp;nbsp;create_tree()&lt;br&gt;+&amp;nbsp;initiate_create_codes()&lt;br&gt;+ create_code()" style="text;strokeColor=none;fillColor=none;align=left;verticalAlign=top;spacingLeft=4;spacingRight=4;overflow=hidden;rotatable=0;points=[[0,0.5],[1,0.5]];portConstraint=eastwest;whiteSpace=wrap;html=1;fontColor=#464F55;rounded=1;labelBackgroundColor=none;" parent="l79x1VMeLkTDuMIe-8M3-8" vertex="1">
          <mxGeometry y="85" width="220" height="122" as="geometry" />
        </mxCell>
        <mxCell id="OLxVMlI60qeMJtvaZg62-1" value="&lt;br&gt;Node" style="swimlane;fontStyle=1;align=center;verticalAlign=top;childLayout=stackLayout;horizontal=1;startSize=40;horizontalStack=0;resizeParent=1;resizeParentMax=0;resizeLast=0;collapsible=1;marginBottom=0;whiteSpace=wrap;html=1;strokeColor=#464F55;fontColor=#FFFFFF;fillColor=#2C6879;rounded=1;labelBackgroundColor=none;" parent="1" vertex="1">
          <mxGeometry x="-1385" y="1108" width="220" height="165" as="geometry">
            <mxRectangle x="299" y="276" width="120" height="40" as="alternateBounds" />
          </mxGeometry>
        </mxCell>
        <mxCell id="OLxVMlI60qeMJtvaZg62-2" value="+ byte: None/bytes&lt;br&gt;+ occurance: int&lt;br&gt;+ left_child: None/Node&lt;br&gt;+ right_child: None/Node" style="text;strokeColor=none;fillColor=none;align=left;verticalAlign=top;spacingLeft=4;spacingRight=4;overflow=hidden;rotatable=0;points=[[0,0.5],[1,0.5]];portConstraint=eastwest;whiteSpace=wrap;html=1;fontColor=#464F55;rounded=1;labelBackgroundColor=none;" parent="OLxVMlI60qeMJtvaZg62-1" vertex="1">
          <mxGeometry y="40" width="220" height="72" as="geometry" />
        </mxCell>
        <mxCell id="OLxVMlI60qeMJtvaZg62-3" value="" style="line;strokeWidth=1;fillColor=none;align=left;verticalAlign=middle;spacingTop=-1;spacingLeft=3;spacingRight=3;rotatable=0;labelPosition=right;points=[];portConstraint=eastwest;strokeColor=#464F55;fontColor=#1A1A1A;rounded=1;labelBackgroundColor=none;" parent="OLxVMlI60qeMJtvaZg62-1" vertex="1">
          <mxGeometry y="112" width="220" height="8" as="geometry" />
        </mxCell>
        <mxCell id="OLxVMlI60qeMJtvaZg62-4" value="+ __lt__()&lt;br&gt;+ __eq__()" style="text;strokeColor=none;fillColor=none;align=left;verticalAlign=top;spacingLeft=4;spacingRight=4;overflow=hidden;rotatable=0;points=[[0,0.5],[1,0.5]];portConstraint=eastwest;whiteSpace=wrap;html=1;fontColor=#464F55;rounded=1;labelBackgroundColor=none;" parent="OLxVMlI60qeMJtvaZg62-1" vertex="1">
          <mxGeometry y="120" width="220" height="45" as="geometry" />
        </mxCell>
        <mxCell id="OLxVMlI60qeMJtvaZg62-5" style="edgeStyle=orthogonalEdgeStyle;rounded=0;orthogonalLoop=1;jettySize=auto;html=1;entryX=0.497;entryY=1.007;entryDx=0;entryDy=0;entryPerimeter=0;endSize=10;startSize=10;endArrow=diamond;endFill=0;startArrow=open;startFill=0;strokeColor=#464F55;" parent="1" source="OLxVMlI60qeMJtvaZg62-1" target="l79x1VMeLkTDuMIe-8M3-11" edge="1">
          <mxGeometry relative="1" as="geometry">
            <Array as="points" />
          </mxGeometry>
        </mxCell>
        <mxCell id="aZK4S6DxadD1nDz1rjE1-1" value="&lt;font color=&quot;#464f55&quot;&gt;run()&lt;/font&gt;" style="rounded=0;whiteSpace=wrap;html=1;strokeColor=#464F55;" vertex="1" parent="1">
          <mxGeometry x="-655" y="574" width="120" height="60" as="geometry" />
        </mxCell>
        <mxCell id="aZK4S6DxadD1nDz1rjE1-3" style="edgeStyle=orthogonalEdgeStyle;rounded=0;orthogonalLoop=1;jettySize=auto;html=1;entryX=0.517;entryY=1.002;entryDx=0;entryDy=0;entryPerimeter=0;endArrow=none;endFill=0;strokeColor=#464F55;" edge="1" parent="1" source="aZK4S6DxadD1nDz1rjE1-1" target="YMNnF1_kSBJPY39AivQV-4">
          <mxGeometry relative="1" as="geometry">
            <Array as="points">
              <mxPoint x="-595" y="554" />
            </Array>
          </mxGeometry>
        </mxCell>
        <mxCell id="aZK4S6DxadD1nDz1rjE1-9" style="edgeStyle=orthogonalEdgeStyle;rounded=0;orthogonalLoop=1;jettySize=auto;html=1;entryX=0;entryY=0.5;entryDx=0;entryDy=0;exitX=0.009;exitY=0.272;exitDx=0;exitDy=0;exitPerimeter=0;endArrow=diamond;endFill=0;endSize=10;startSize=10;strokeColor=#464F55;" edge="1" parent="1" source="aZK4S6DxadD1nDz1rjE1-8" target="YMNnF1_kSBJPY39AivQV-2">
          <mxGeometry relative="1" as="geometry">
            <Array as="points">
              <mxPoint x="-794" y="201" />
              <mxPoint x="-794" y="398" />
            </Array>
          </mxGeometry>
        </mxCell>
        <mxCell id="aZK4S6DxadD1nDz1rjE1-5" value="&lt;br&gt;RichOutput" style="swimlane;fontStyle=1;align=center;verticalAlign=top;childLayout=stackLayout;horizontal=1;startSize=40;horizontalStack=0;resizeParent=1;resizeParentMax=0;resizeLast=0;collapsible=1;marginBottom=0;whiteSpace=wrap;html=1;strokeColor=#464F55;fontColor=#FFFFFF;fillColor=#2C6879;rounded=1;labelBackgroundColor=none;" vertex="1" parent="1">
          <mxGeometry x="-735" y="54" width="280" height="221" as="geometry">
            <mxRectangle x="299" y="276" width="120" height="40" as="alternateBounds" />
          </mxGeometry>
        </mxCell>
        <mxCell id="aZK4S6DxadD1nDz1rjE1-6" value="+&amp;nbsp;output_table: Table&lt;br&gt;+ info_table: Table&lt;br&gt;+ console: Console" style="text;strokeColor=none;fillColor=none;align=left;verticalAlign=top;spacingLeft=4;spacingRight=4;overflow=hidden;rotatable=0;points=[[0,0.5],[1,0.5]];portConstraint=eastwest;whiteSpace=wrap;html=1;fontColor=#464F55;rounded=1;labelBackgroundColor=none;" vertex="1" parent="aZK4S6DxadD1nDz1rjE1-5">
          <mxGeometry y="40" width="280" height="72" as="geometry" />
        </mxCell>
        <mxCell id="aZK4S6DxadD1nDz1rjE1-7" value="" style="line;strokeWidth=1;fillColor=none;align=left;verticalAlign=middle;spacingTop=-1;spacingLeft=3;spacingRight=3;rotatable=0;labelPosition=right;points=[];portConstraint=eastwest;strokeColor=#464F55;fontColor=#1A1A1A;rounded=1;labelBackgroundColor=none;" vertex="1" parent="aZK4S6DxadD1nDz1rjE1-5">
          <mxGeometry y="112" width="280" height="8" as="geometry" />
        </mxCell>
        <mxCell id="aZK4S6DxadD1nDz1rjE1-8" value="+ add_rule()&lt;br&gt;+ add_path()&lt;br&gt;+ display_output()&lt;br&gt;+ display_info()&lt;br&gt;+ execute_with_spinner()&lt;br&gt;" style="text;strokeColor=none;fillColor=none;align=left;verticalAlign=top;spacingLeft=4;spacingRight=4;overflow=hidden;rotatable=0;points=[[0,0.5],[1,0.5]];portConstraint=eastwest;whiteSpace=wrap;html=1;fontColor=#464F55;rounded=1;labelBackgroundColor=none;" vertex="1" parent="aZK4S6DxadD1nDz1rjE1-5">
          <mxGeometry y="120" width="280" height="101" as="geometry" />
        </mxCell>
      </root>
    </mxGraphModel>
  </diagram>
</mxfile>
